<?xml version="1.0" encoding="utf-8"?>
<!-- Generator: Adobe Illustrator 26.5.0, SVG Export Plug-In . SVG Version: 6.00 Build 0)  -->
<svg version="1.0" id="katman_1" xmlns="http://www.w3.org/2000/svg" xmlns:xlink="http://www.w3.org/1999/xlink" x="0px" y="0px"
	 viewBox="0 0 1190.55 841.89" style="enable-background:new 0 0 1190.55 841.89;" xml:space="preserve">
<style type="text/css">
	.st0{fill:#8BC9AE;}
	.st1{fill:#2F2F3A;}
	.st2{fill:#F2C84A;}
	.st3{fill:#B384B9;}
	.st4{fill:#4BB485;}
	.st5{fill:#EE7375;}
	.st6{fill:#5E6EB3;}
	.st7{fill:#41BEDE;}
	.st8{fill:#F39A4B;}
	.st9{fill:#323342;}
</style>
<path class="st0" d="M190.38,499.24v-49.55h51.83v20.27c-0.01,7.77-3.11,15.22-8.61,20.71c-5.5,5.49-12.96,8.57-20.73,8.57H190.38z"
	/>
<path class="st1" d="M212.77,503.44h-26.44v-57.95h59.92v24.47c-0.01,8.88-3.55,17.39-9.82,23.66
	C230.16,499.89,221.65,503.42,212.77,503.44L212.77,503.44z M194.68,495.04h18.09c6.66,0,13.05-2.64,17.76-7.34
	c4.71-4.7,7.37-11.08,7.38-17.74v-16.07h-43.23V495.04z"/>
<path class="st2" d="M243.46,448.29v-52.56h51.83v23.22c0.01,3.85-0.75,7.66-2.21,11.22c-1.47,3.56-3.62,6.79-6.35,9.52
	c-2.72,2.73-5.95,4.89-9.51,6.36c-3.56,1.47-7.37,2.23-11.22,2.23H243.46z"/>
<path class="st1" d="M265.75,452.48h-26.49v-60.96h59.97v27.42c0,8.89-3.53,17.41-9.8,23.7
	C283.15,448.93,274.63,452.47,265.75,452.48L265.75,452.48z M247.66,444.09h18.09c6.66-0.01,13.04-2.67,17.74-7.38
	c4.7-4.71,7.34-11.1,7.34-17.76v-19.18h-43.18V444.09z"/>
<path class="st3" d="M242.06,395.72h-51.58v52.56h51.58V395.72z"/>
<path class="st1" d="M246.26,452.48h-59.92v-60.96h59.92V452.48z M194.42,444.09h43.23v-44.32h-42.97L194.42,444.09z"/>
<path class="st4" d="M137.56,394.58v-23.53c0-7.77,3.09-15.22,8.58-20.71c5.49-5.49,12.94-8.58,20.71-8.58h22.29v52.82H137.56z"/>
<path class="st1" d="M193.34,398.52h-59.97v-27.47c0.01-8.88,3.55-17.39,9.82-23.66c6.28-6.28,14.79-9.81,23.66-9.82h26.49V398.52z
	 M141.76,390.12h43.44v-44.16h-18.35c-6.65,0-13.04,2.64-17.74,7.35s-7.35,11.09-7.35,17.74V390.12z"/>
<path class="st5" d="M243.46,394.58v-52.82h22.29c7.77,0,15.22,3.09,20.71,8.58c5.49,5.49,8.58,12.94,8.58,20.71v23.53H243.46z"/>
<path class="st1" d="M299.23,398.52h-59.97v-60.96h26.49c8.88,0.01,17.39,3.55,23.66,9.82c6.28,6.28,9.81,14.79,9.82,23.66V398.52z
	 M247.66,390.12h43.18v-19.08c0-6.65-2.64-13.04-7.35-17.74s-11.09-7.35-17.74-7.35h-18.09V390.12z"/>
<path class="st6" d="M242.06,341.76h-51.58v52.56h51.58V341.76z"/>
<path class="st1" d="M246.26,398.52h-59.92v-60.96h59.92V398.52z M194.42,390.12h43.23v-44.16h-42.97L194.42,390.12z"/>
<path class="st7" d="M137.56,469.95v-20.27h51.83v49.55h-22.55c-7.77,0-15.22-3.09-20.71-8.58
	C140.65,485.17,137.56,477.72,137.56,469.95L137.56,469.95z"/>
<path class="st1" d="M193.34,503.44h-26.49c-8.88-0.01-17.39-3.55-23.66-9.82c-6.28-6.28-9.81-14.79-9.82-23.66v-24.47h59.97V503.44
	z M141.76,453.88v16.07c0,6.65,2.64,13.04,7.35,17.74c4.7,4.7,11.09,7.35,17.74,7.35h18.35v-41.16H141.76z"/>
<path class="st8" d="M189.14,395.72h-51.58v52.56h51.58V395.72z"/>
<path class="st1" d="M193.34,452.48h-59.97v-60.96h59.97V452.48z M141.76,444.09h43.44v-44.32h-43.44V444.09z"/>
<path class="st9" d="M378.86,466.15V346.56h40.57c10.14,0,18.82,1.63,26.03,4.88c7.33,3.26,12.9,7.97,16.74,14.15
	c3.83,6.18,5.75,13.64,5.75,22.4c0,6.06-1.18,11.62-3.55,16.68c-2.25,5.05-5.52,9.43-9.8,13.14c-4.17,3.59-9.19,6.4-15.05,8.42
	c-5.86,1.91-12.4,2.86-19.61,2.86c-3.83,0-7.89-0.34-12.17-1.01v38.07H378.86z M407.77,370.98v32.84c3.94,0.56,7.55,0.84,10.82,0.84
	c6.31,0,11.16-1.4,14.54-4.21c3.49-2.92,5.24-7.13,5.24-12.63c0-5.39-1.69-9.54-5.07-12.46c-3.27-2.92-8.06-4.38-14.37-4.38H407.77z
	"/>
<path class="st9" d="M516.25,468.67c-6.76,0-13.07-1.18-18.93-3.54c-5.75-2.36-10.82-5.67-15.21-9.94
	c-4.28-4.27-7.61-9.26-9.97-14.99c-2.37-5.73-3.55-11.96-3.55-18.7s1.18-12.97,3.55-18.7c2.48-5.84,5.86-10.89,10.14-15.16
	c4.4-4.38,9.52-7.75,15.38-10.11c5.97-2.47,12.4-3.71,19.27-3.71c6.76,0,13.02,1.18,18.76,3.54c5.86,2.36,10.93,5.73,15.21,10.11
	c4.4,4.27,7.78,9.26,10.14,14.99c2.37,5.73,3.55,11.96,3.55,18.7s-1.24,13.03-3.72,18.86c-2.37,5.73-5.75,10.72-10.14,14.99
	c-4.28,4.27-9.41,7.64-15.38,10.11C529.49,467.49,523.12,468.67,516.25,468.67z M516.59,443.91c3.72,0,7.1-0.95,10.14-2.86
	c3.04-2.02,5.41-4.72,7.1-8.09c1.8-3.48,2.7-7.35,2.7-11.62c0-4.38-0.9-8.25-2.7-11.62c-1.69-3.48-4.06-6.18-7.1-8.08
	c-3.04-2.02-6.42-3.03-10.14-3.03c-3.72,0-7.1,1.01-10.14,3.03c-3.04,1.91-5.47,4.6-7.27,8.08c-1.69,3.37-2.54,7.24-2.54,11.62
	c0,4.27,0.84,8.14,2.54,11.62c1.8,3.37,4.23,6.06,7.27,8.09C509.49,442.96,512.87,443.91,516.59,443.91z"/>
<path class="st9" d="M571.52,466.15V340.16h27.55v125.99H571.52z"/>
<path class="st9" d="M626.59,500.84c-3.27,0-6.37-0.34-9.3-1.01c-2.93-0.67-5.69-1.74-8.28-3.2l4.9-21.05
	c1.24,0.56,2.7,1.07,4.4,1.52c1.8,0.45,3.49,0.67,5.07,0.67c3.04,0,5.69-0.95,7.95-2.86c2.25-1.8,4.17-4.66,5.75-8.59l0.68-1.52
	l-36.01-88.43H632l18.6,58.95l16.57-58.95h29.24l-35.84,96.18c-3.61,9.66-8.17,16.79-13.69,21.39
	C641.35,498.54,634.59,500.84,626.59,500.84z"/>
<path class="st9" d="M723.62,466.15l-29.75-89.78h28.74l14.2,56.76l16.23-56.76h24.34l16.23,57.1l14.71-57.1h27.72l-29.75,89.78
	h-25.53l-15.89-56.26l-16.06,56.26H723.62z"/>
<path class="st9" d="M879.67,468.67c-6.76,0-13.07-1.18-18.93-3.54c-5.75-2.36-10.82-5.67-15.21-9.94
	c-4.28-4.27-7.61-9.26-9.97-14.99c-2.37-5.73-3.55-11.96-3.55-18.7s1.18-12.97,3.55-18.7c2.48-5.84,5.86-10.89,10.14-15.16
	c4.4-4.38,9.52-7.75,15.38-10.11c5.97-2.47,12.4-3.71,19.27-3.71c6.76,0,13.02,1.18,18.76,3.54c5.86,2.36,10.93,5.73,15.21,10.11
	c4.4,4.27,7.78,9.26,10.14,14.99c2.37,5.73,3.55,11.96,3.55,18.7s-1.24,13.03-3.72,18.86c-2.36,5.73-5.74,10.72-10.14,14.99
	c-4.29,4.27-9.41,7.64-15.38,10.11C892.91,467.49,886.54,468.67,879.67,468.67z M880.01,443.91c3.72,0,7.1-0.95,10.14-2.86
	c3.04-2.02,5.41-4.72,7.1-8.09c1.8-3.48,2.71-7.35,2.71-11.62c0-4.38-0.9-8.25-2.71-11.62c-1.69-3.48-4.05-6.18-7.1-8.08
	c-3.04-2.02-6.42-3.03-10.14-3.03c-3.72,0-7.1,1.01-10.14,3.03c-3.04,1.91-5.47,4.6-7.27,8.08c-1.69,3.37-2.54,7.24-2.54,11.62
	c0,4.27,0.85,8.14,2.54,11.62c1.8,3.37,4.23,6.06,7.27,8.09C872.91,442.96,876.29,443.91,880.01,443.91z"/>
<path class="st9" d="M934.94,466.15v-89.78h25.36l1.01,14.32c2.14-4.94,5.13-8.76,8.96-11.45c3.83-2.69,8.28-4.04,13.35-4.04
	c1.47,0,2.93,0.11,4.4,0.34c1.46,0.22,2.76,0.62,3.89,1.18l-2.71,27.29c-1.24-0.45-2.53-0.73-3.89-0.84
	c-1.24-0.22-2.53-0.34-3.89-0.34c-6.31,0-11.05,1.8-14.2,5.39c-3.16,3.48-4.74,8.59-4.74,15.33v42.61H934.94z"/>
<path class="st9" d="M996.37,466.15V340.16h27.55v72.09l29.75-35.88h31.27l-34.49,39.75l38.54,50.03h-33.98l-31.11-44.13v44.13
	H996.37z"/>
</svg>
